<?xml version="1.0" encoding="utf-8"?>
<!-- Generator: Adobe Illustrator 19.1.0, SVG Export Plug-In . SVG Version: 6.00 Build 0)  -->
<svg version="1.1" id="Layer_1" xmlns="http://www.w3.org/2000/svg" xmlns:xlink="http://www.w3.org/1999/xlink" x="0px" y="0px"
	 viewBox="0 0 18 18" enable-background="new 0 0 18 18" xml:space="preserve">
<path id="search" fill="#ffffff" d="M17.7035,16.5098l-1.1861,1.2007
	c-0.3954,0.3859-0.7907,0.3859-1.1861,0l-4.6126-4.5884c-1.1861,0.6861-2.4161,1.0292-3.6461,1.0292
	c-1.9329,0-3.6022-0.6861-5.0079-2.0584C0.6589,10.7207,0,9.0482,0,7.0756c0-1.9726,0.7029-3.645,2.0647-5.0173
	C3.4704,0.6861,5.1397,0,7.0726,0s3.6022,0.6861,5.0079,2.0584s2.0647,3.0447,2.0647,5.0173c0,1.2865-0.3514,2.4872-1.0543,3.645
	l4.6126,4.6313C18.0988,15.6951,18.0988,16.081,17.7035,16.5098L17.7035,16.5098z M11.817,7.0328
	c0-1.2865-0.4832-2.4014-1.4057-3.3448C9.4887,2.7445,8.3905,2.3157,7.0726,2.3157S4.6565,2.7874,3.734,3.6879
	C2.8115,4.6313,2.3722,5.7034,2.3722,7.0328c0,1.2865,0.4393,2.4014,1.3618,3.3449c0.9225,0.9434,2.0207,1.3722,3.3386,1.3722
	s2.4161-0.4717,3.3386-1.3722C11.3337,9.4771,11.817,8.3621,11.817,7.0328L11.817,7.0328z" />
</svg>
